# xmcd CD database file
#
# Track frame offsets:
#	150
#	13983
#	26347
#	41004
#	53664
#	65122
#	79445
#	92093
#	104769
#	120421
#	135727
#	150836
#	166434
#	193132
#
# Disc length: 2778 seconds
#
# Revision: 0
# Processed by: cddbd v1.5.1PL0 Copyright (c) Steve Scherf et al.
# Submitted via: CDex 1.51
#
DISCID=bd0ad80e
DTITLE=Benny Goodman - 1935-1936
DYEAR=1900
DGENRE=Jazz
TTITLE0=Benny Goodman - Oh Lady Be Good
TTITLE1=Benny Goodman - Dinah
TTITLE2=Benny Goodman - Who
TTITLE3=Benny Goodman - Someday Sweethart
TTITLE4=Benny Goodman - China Boy
TTITLE5=Benny Goodman - More Than You Know
TTITLE6=Benny Goodman - Nobody´s Sweetheart
TTITLE7=Benny Goodman - After You´ve Gone
TTITLE8=Benny Goodman - Body and Soul
TTITLE9=Benny Goodman - Vibraphon Blues
TTITLE10=Benny Goodman - Sweet Sue Just You
TTITLE11=Benny Goodman - My Melancholy Baby
TTITLE12=Benny Goodman - Stompin At The Savoy
TTITLE13=Benny Goodman - Whispering
EXTD=
EXTT0=
EXTT1=
EXTT2=
EXTT3=
EXTT4=
EXTT5=
EXTT6=
EXTT7=
EXTT8=
EXTT9=
EXTT10=
EXTT11=
EXTT12=
EXTT13=
PLAYORDER=
